<?xml version="1.0" encoding="utf-8"?>
<!-- Generator: Adobe Illustrator 16.0.0, SVG Export Plug-In . SVG Version: 6.00 Build 0)  -->
<!DOCTYPE svg PUBLIC "-//W3C//DTD SVG 1.1//EN" "http://www.w3.org/Graphics/SVG/1.1/DTD/svg11.dtd">
<svg version="1.1" id="Layer_1" xmlns="http://www.w3.org/2000/svg" xmlns:xlink="http://www.w3.org/1999/xlink" x="0px" y="0px"
	 width="100%" height="245.5px" viewBox="0 0 962 245.5" enable-background="new 0 0 962 275.5" xml:space="preserve">
<polygon fill="#4C484F" points="910.488,50.343 36.924,37.144 36.885,33.462 911.068,47 "/>
<path fill="#E008FF" d="M37.5,136"/>
<polygon fill="#4C484F" points="44.755,247.654 910.008,245.271 909.969,240.771 44.303,242.658 "/>
<polygon fill="#4C484F" points="37.925,180.914 283.869,163.081 384.658,147.307 384.658,125.359 283.869,109.581 37.925,91.75 "/>
<text transform="matrix(1 0 0 1 602 82.5)" font-family="'MyriadPro-Regular'" font-size="14">SB TRACK</text>
<text transform="matrix(1 0 0 1 602 206.999)" font-family="'MyriadPro-Regular'" font-size="14">NB TRACK</text>
<text transform="matrix(1 0 0 1 602 124.999)" font-family="'MyriadPro-Regular'" font-size="12">CENTER TRACK</text>
<path fill="#4C484F" d="M166,55.5"/>
<path fill="none" stroke="#4C484F" stroke-miterlimit="10" stroke-dasharray="12,8,3" d="M456.5,137.5"/>
<path fill="none" stroke="#4C484F" stroke-width="6" stroke-miterlimit="10" d="M241.391,68.22c0,0,113.499,24.648,171.031,24.131
	L907.667,92.5"/>
<path fill="none" stroke="#4C484F" stroke-width="6" stroke-miterlimit="10" d="M244.458,208.388c0,0,102.542-26.221,178.542-22.888
	s483.396,1.131,483.396,1.131"/>
<line fill="none" stroke="#C1C1C1" stroke-width="2" stroke-linecap="round" stroke-miterlimit="10" stroke-dasharray="12,8,3" x1="43.75" y1="52.167" x2="43.75" y2="45.5"/>
<line fill="none" stroke="#C1C1C1" stroke-width="2" stroke-linecap="round" stroke-miterlimit="10" stroke-dasharray="12,8,3" x1="64.75" y1="52.167" x2="64.75" y2="45.5"/>
<line fill="none" stroke="#C1C1C1" stroke-width="2" stroke-linecap="round" stroke-miterlimit="10" stroke-dasharray="12,8,3" x1="85.75" y1="46.5" x2="85.75" y2="53.167"/>
<line fill="none" stroke="#C1C1C1" stroke-width="2" stroke-linecap="round" stroke-miterlimit="10" stroke-dasharray="12,8,3" x1="106.75" y1="53.167" x2="106.75" y2="46.5"/>
<line fill="none" stroke="#C1C1C1" stroke-width="2" stroke-linecap="round" stroke-miterlimit="10" stroke-dasharray="12,8,3" x1="127.75" y1="58.5" x2="127.75" y2="47.5"/>
<line fill="none" stroke="#C1C1C1" stroke-width="2" stroke-linecap="round" stroke-miterlimit="10" stroke-dasharray="12,8,3" x1="164.5" y1="67.375" x2="164.5" y2="59"/>
<line fill="none" stroke="#C1C1C1" stroke-width="2" stroke-linecap="round" stroke-miterlimit="10" stroke-dasharray="12,8,3" x1="180.167" y1="71.875" x2="180.167" y2="63.5"/>
<line fill="none" stroke="#C1C1C1" stroke-width="2" stroke-linecap="round" stroke-miterlimit="10" stroke-dasharray="12,8,3" x1="187.5" y1="212.875" x2="187.5" y2="205.563"/>
<line fill="none" stroke="#C1C1C1" stroke-width="2" stroke-linecap="round" stroke-miterlimit="10" stroke-dasharray="12,8,3" x1="211.75" y1="206.375" x2="211.75" y2="199.063"/>
<line fill="none" stroke="#C1C1C1" stroke-width="2" stroke-linecap="round" stroke-miterlimit="10" stroke-dasharray="12,8,3" x1="233" y1="201.125" x2="233" y2="193.813"/>
<line fill="none" stroke="#C1C1C1" stroke-width="2" stroke-linecap="round" stroke-miterlimit="10" stroke-dasharray="12,8,3" x1="257.5" y1="194.375" x2="257.5" y2="187.063"/>
<line fill="none" stroke="#C1C1C1" stroke-width="2" stroke-linecap="round" stroke-miterlimit="10" stroke-dasharray="12,8,3" x1="281.25" y1="188.125" x2="281.25" y2="180.813"/>
<line fill="none" stroke="#C1C1C1" stroke-width="2" stroke-linecap="round" stroke-miterlimit="10" stroke-dasharray="12,8,3" x1="308.75" y1="181.375" x2="308.75" y2="174.063"/>
<line fill="none" stroke="#C1C1C1" stroke-width="2" stroke-linecap="round" stroke-miterlimit="10" stroke-dasharray="12,8,3" x1="330" y1="176.125" x2="330" y2="168.813"/>
<line fill="none" stroke="#C1C1C1" stroke-width="2" stroke-linecap="round" stroke-miterlimit="10" stroke-dasharray="12,8,3" x1="350.5" y1="170.125" x2="350.5" y2="162.813"/>
<line fill="none" stroke="#C1C1C1" stroke-width="2" stroke-linecap="round" stroke-miterlimit="10" stroke-dasharray="12,8,3" x1="369.5" y1="164.875" x2="369.5" y2="157.563"/>
<line fill="none" stroke="#C1C1C1" stroke-width="2" stroke-linecap="round" stroke-miterlimit="10" stroke-dasharray="12,8,3" x1="393" y1="159.625" x2="393" y2="152.313"/>
<line fill="none" stroke="#C1C1C1" stroke-width="2" stroke-linecap="round" stroke-miterlimit="10" stroke-dasharray="12,8,3" x1="415" y1="153.625" x2="415" y2="146.313"/>
<line fill="none" stroke="#C1C1C1" stroke-width="2" stroke-linecap="round" stroke-miterlimit="10" stroke-dasharray="12,8,3" x1="435.5" y1="147.875" x2="435.5" y2="140.563"/>
<line fill="none" stroke="#C1C1C1" stroke-width="2" stroke-linecap="round" stroke-miterlimit="10" stroke-dasharray="12,8,3" x1="169.25" y1="217.875" x2="169.25" y2="210.563"/>
<line fill="none" stroke="#C1C1C1" stroke-width="2" stroke-linecap="round" stroke-miterlimit="10" stroke-dasharray="12,8,3" x1="148.5" y1="223.375" x2="148.5" y2="216.063"/>
<line fill="none" stroke="#C1C1C1" stroke-width="2" stroke-linecap="round" stroke-miterlimit="10" stroke-dasharray="12,8,3" x1="196.333" y1="74.875" x2="196.333" y2="66.5"/>
<line fill="none" stroke="#C1C1C1" stroke-width="2" stroke-linecap="round" stroke-miterlimit="10" stroke-dasharray="12,8,3" x1="213.5" y1="79.875" x2="213.5" y2="71.5"/>
<line fill="none" stroke="#C1C1C1" stroke-width="2" stroke-linecap="round" stroke-miterlimit="10" stroke-dasharray="12,8,3" x1="233.333" y1="84.375" x2="233.333" y2="76"/>
<line fill="none" stroke="#C1C1C1" stroke-width="2" stroke-linecap="round" stroke-miterlimit="10" stroke-dasharray="12,8,3" x1="253.333" y1="88.875" x2="253.333" y2="80.5"/>
<line fill="none" stroke="#C1C1C1" stroke-width="2" stroke-linecap="round" stroke-miterlimit="10" stroke-dasharray="12,8,3" x1="273" y1="93.708" x2="273" y2="85.333"/>
<line fill="none" stroke="#C1C1C1" stroke-width="2" stroke-linecap="round" stroke-miterlimit="10" stroke-dasharray="12,8,3" x1="290.667" y1="98.875" x2="290.667" y2="90.5"/>
<line fill="none" stroke="#C1C1C1" stroke-width="2" stroke-linecap="round" stroke-miterlimit="10" stroke-dasharray="12,8,3" x1="309.333" y1="103.042" x2="309.333" y2="94.667"/>
<line fill="none" stroke="#C1C1C1" stroke-width="2" stroke-linecap="round" stroke-miterlimit="10" stroke-dasharray="12,8,3" x1="329.833" y1="107.876" x2="329.833" y2="99.501"/>
<line fill="none" stroke="#C1C1C1" stroke-width="2" stroke-linecap="round" stroke-miterlimit="10" stroke-dasharray="12,8,3" x1="350.166" y1="113.21" x2="350.166" y2="104.835"/>
<line fill="none" stroke="#C1C1C1" stroke-width="2" stroke-linecap="round" stroke-miterlimit="10" stroke-dasharray="12,8,3" x1="369.666" y1="117.71" x2="369.666" y2="109.335"/>
<line fill="none" stroke="#C1C1C1" stroke-width="2" stroke-linecap="round" stroke-miterlimit="10" stroke-dasharray="12,8,3" x1="388.333" y1="122.543" x2="388.333" y2="114.168"/>
<line fill="none" stroke="#C1C1C1" stroke-width="2" stroke-linecap="round" stroke-miterlimit="10" stroke-dasharray="12,8,3" x1="405.666" y1="126.877" x2="405.666" y2="118.502"/>
<line fill="none" stroke="#C1C1C1" stroke-width="2" stroke-linecap="round" stroke-miterlimit="10" stroke-dasharray="12,8,3" x1="421.833" y1="130.543" x2="421.833" y2="122.168"/>
<line fill="none" stroke="#C1C1C1" stroke-width="2" stroke-linecap="round" stroke-miterlimit="10" stroke-dasharray="12,8,3" x1="438.333" y1="134.543" x2="438.333" y2="126.168"/>
<line fill="none" stroke="#C1C1C1" stroke-width="2" stroke-linecap="round" stroke-miterlimit="10" x1="456" y1="143.167" x2="456" y2="130.584"/>
<line fill="none" stroke="#C1C1C1" stroke-width="2" stroke-linecap="round" stroke-miterlimit="10" x1="150.438" y1="64.125" x2="150.438" y2="47.5"/>
<line fill="none" stroke="#C1C1C1" stroke-width="2" stroke-linecap="round" stroke-miterlimit="10" stroke-dasharray="12,8,3" x1="169.75" y1="55.167" x2="169.75" y2="48.5"/>
<line fill="none" stroke="#C1C1C1" stroke-width="2" stroke-linecap="round" stroke-miterlimit="10" stroke-dasharray="12,8,3" x1="190.75" y1="55.167" x2="190.75" y2="48.5"/>
<line fill="none" stroke="#C1C1C1" stroke-width="2" stroke-linecap="round" stroke-miterlimit="10" stroke-dasharray="12,8,3" x1="212.583" y1="56.167" x2="212.583" y2="49.5"/>
<line fill="none" stroke="#C1C1C1" stroke-width="2" stroke-linecap="round" stroke-miterlimit="10" stroke-dasharray="12,8,3" x1="233.583" y1="56.167" x2="233.583" y2="49.5"/>
<line fill="none" stroke="#C1C1C1" stroke-width="2" stroke-linecap="round" stroke-miterlimit="10" stroke-dasharray="12,8,3" x1="255.75" y1="57.167" x2="255.75" y2="50.5"/>
<line fill="none" stroke="#C1C1C1" stroke-width="2" stroke-linecap="round" stroke-miterlimit="10" stroke-dasharray="12,8,3" x1="276.75" y1="57.167" x2="276.75" y2="50.5"/>
<line fill="none" stroke="#C1C1C1" stroke-width="2" stroke-linecap="round" stroke-miterlimit="10" stroke-dasharray="12,8,3" x1="298.583" y1="58.167" x2="298.583" y2="51.5"/>
<line fill="none" stroke="#C1C1C1" stroke-width="2" stroke-linecap="round" stroke-miterlimit="10" stroke-dasharray="12,8,3" x1="319.583" y1="58.167" x2="319.583" y2="51.5"/>
<line fill="none" stroke="#C1C1C1" stroke-width="2" stroke-linecap="round" stroke-miterlimit="10" stroke-dasharray="12,8,3" x1="342.917" y1="59.167" x2="342.917" y2="52.5"/>
<line fill="none" stroke="#C1C1C1" stroke-width="2" stroke-linecap="round" stroke-miterlimit="10" stroke-dasharray="12,8,3" x1="363.917" y1="59.167" x2="363.917" y2="52.5"/>
<line fill="none" stroke="#C1C1C1" stroke-width="2" stroke-linecap="round" stroke-miterlimit="10" stroke-dasharray="12,8,3" x1="385.75" y1="60.167" x2="385.75" y2="53.5"/>
<line fill="none" stroke="#C1C1C1" stroke-width="2" stroke-linecap="round" stroke-miterlimit="10" stroke-dasharray="12,8,3" x1="406.75" y1="60.167" x2="406.75" y2="53.5"/>
<line fill="none" stroke="#C1C1C1" stroke-width="2" stroke-linecap="round" stroke-miterlimit="10" stroke-dasharray="12,8,3" x1="428.583" y1="61.167" x2="428.583" y2="54.5"/>
<line fill="none" stroke="#C1C1C1" stroke-width="2" stroke-linecap="round" stroke-miterlimit="10" stroke-dasharray="12,8,3" x1="449.583" y1="61.167" x2="449.583" y2="54.5"/>
<line fill="none" stroke="#C1C1C1" stroke-width="2" stroke-linecap="round" stroke-miterlimit="10" stroke-dasharray="12,8,3" x1="471.417" y1="62.167" x2="471.417" y2="55.5"/>
<line fill="none" stroke="#C1C1C1" stroke-width="2" stroke-linecap="round" stroke-miterlimit="10" stroke-dasharray="12,8,3" x1="492.417" y1="62.167" x2="492.417" y2="55.5"/>
<line fill="none" stroke="#C1C1C1" stroke-width="2" stroke-linecap="round" stroke-miterlimit="10" stroke-dasharray="12,8,3" x1="514.25" y1="62.167" x2="514.25" y2="55.5"/>
<line fill="none" stroke="#C1C1C1" stroke-width="2" stroke-linecap="round" stroke-miterlimit="10" stroke-dasharray="12,8,3" x1="535.25" y1="62.167" x2="535.25" y2="55.5"/>
<line fill="none" stroke="#C1C1C1" stroke-width="2" stroke-linecap="round" stroke-miterlimit="10" stroke-dasharray="12,8,3" x1="557.083" y1="63.167" x2="557.083" y2="56.5"/>
<line fill="none" stroke="#C1C1C1" stroke-width="2" stroke-linecap="round" stroke-miterlimit="10" stroke-dasharray="12,8,3" x1="578.083" y1="64.167" x2="578.083" y2="57.5"/>
<line fill="none" stroke="#C1C1C1" stroke-width="2" stroke-linecap="round" stroke-miterlimit="10" stroke-dasharray="12,8,3" x1="602.25" y1="65.167" x2="602.25" y2="58.5"/>
<line fill="none" stroke="#C1C1C1" stroke-width="2" stroke-linecap="round" stroke-miterlimit="10" stroke-dasharray="12,8,3" x1="623.25" y1="65.167" x2="623.25" y2="58.5"/>
<line fill="none" stroke="#C1C1C1" stroke-width="2" stroke-linecap="round" stroke-miterlimit="10" stroke-dasharray="12,8,3" x1="645.083" y1="66.167" x2="645.083" y2="59.5"/>
<line fill="none" stroke="#C1C1C1" stroke-width="2" stroke-linecap="round" stroke-miterlimit="10" stroke-dasharray="12,8,3" x1="666.083" y1="66.167" x2="666.083" y2="59.5"/>
<line fill="none" stroke="#C1C1C1" stroke-width="2" stroke-linecap="round" stroke-miterlimit="10" stroke-dasharray="12,8,3" x1="687.417" y1="66.833" x2="687.417" y2="60.167"/>
<line fill="none" stroke="#C1C1C1" stroke-width="2" stroke-linecap="round" stroke-miterlimit="10" stroke-dasharray="12,8,3" x1="707.584" y1="66.833" x2="707.584" y2="60.167"/>
<line fill="none" stroke="#C1C1C1" stroke-width="2" stroke-linecap="round" stroke-miterlimit="10" stroke-dasharray="12,8,3" x1="727.917" y1="67.833" x2="727.917" y2="61.167"/>
<line fill="none" stroke="#C1C1C1" stroke-width="2" stroke-linecap="round" stroke-miterlimit="10" stroke-dasharray="12,8,3" x1="747.75" y1="67.833" x2="747.75" y2="61.167"/>
<line fill="none" stroke="#C1C1C1" stroke-width="2" stroke-linecap="round" stroke-miterlimit="10" stroke-dasharray="12,8,3" x1="766.083" y1="67.833" x2="766.083" y2="61.167"/>
<polyline fill="none" stroke="#4C484F" stroke-width="2" stroke-linecap="round" stroke-miterlimit="10" points="34.864,231.748 
	378.313,232.877 741.29,230.259 812.193,229.857 "/>
<path fill="#4C484F" d="M166.033,231.997"/>
<line fill="none" stroke="#C1C1C1" stroke-width="2" stroke-linecap="round" stroke-miterlimit="10" stroke-dasharray="12,8,3" x1="43.738" y1="231.749" x2="43.57" y2="225.084"/>
<line fill="none" stroke="#C1C1C1" stroke-width="2" stroke-linecap="round" stroke-miterlimit="10" stroke-dasharray="12,8,3" x1="64.731" y1="231.219" x2="64.563" y2="224.555"/>
<line fill="none" stroke="#C1C1C1" stroke-width="2" stroke-linecap="round" stroke-miterlimit="10" stroke-dasharray="12,8,3" x1="85.75" y1="231.688" x2="85.582" y2="225.024"/>
<line fill="none" stroke="#C1C1C1" stroke-width="2" stroke-linecap="round" stroke-miterlimit="10" stroke-dasharray="12,8,3" x1="106.743" y1="231.159" x2="106.575" y2="224.494"/>
<line fill="none" stroke="#C1C1C1" stroke-width="2" stroke-linecap="round" stroke-miterlimit="10" stroke-dasharray="12,8,3" x1="127.762" y1="231.629" x2="127.593" y2="224.964"/>
<line fill="none" stroke="#C1C1C1" stroke-width="2" stroke-linecap="round" stroke-miterlimit="10" stroke-dasharray="12,8,3" x1="148.755" y1="231.099" x2="148.587" y2="224.435"/>
<line fill="none" stroke="#C1C1C1" stroke-width="2" stroke-linecap="round" stroke-miterlimit="10" stroke-dasharray="12,8,3" x1="169.774" y1="231.568" x2="169.605" y2="224.904"/>
<line fill="none" stroke="#C1C1C1" stroke-width="2" stroke-linecap="round" stroke-miterlimit="10" stroke-dasharray="12,8,3" x1="190.767" y1="231.039" x2="190.599" y2="224.374"/>
<line fill="none" stroke="#C1C1C1" stroke-width="2" stroke-linecap="round" stroke-miterlimit="10" stroke-dasharray="12,8,3" x1="212.618" y1="231.487" x2="212.45" y2="224.822"/>
<line fill="none" stroke="#C1C1C1" stroke-width="2" stroke-linecap="round" stroke-miterlimit="10" stroke-dasharray="12,8,3" x1="233.611" y1="230.957" x2="233.443" y2="224.293"/>
<line fill="none" stroke="#C1C1C1" stroke-width="2" stroke-linecap="round" stroke-miterlimit="10" stroke-dasharray="12,8,3" x1="255.797" y1="231.397" x2="255.629" y2="224.733"/>
<line fill="none" stroke="#C1C1C1" stroke-width="2" stroke-linecap="round" stroke-miterlimit="10" stroke-dasharray="12,8,3" x1="276.79" y1="230.867" x2="276.622" y2="224.203"/>
<line fill="none" stroke="#C1C1C1" stroke-width="2" stroke-linecap="round" stroke-miterlimit="10" stroke-dasharray="12,8,3" x1="298.642" y1="231.316" x2="298.473" y2="224.652"/>
<line fill="none" stroke="#C1C1C1" stroke-width="2" stroke-linecap="round" stroke-miterlimit="10" stroke-dasharray="12,8,3" x1="319.635" y1="230.786" x2="319.466" y2="224.123"/>
<line fill="none" stroke="#C1C1C1" stroke-width="2" stroke-linecap="round" stroke-miterlimit="10" stroke-dasharray="12,8,3" x1="342.987" y1="231.197" x2="342.818" y2="224.533"/>
<line fill="none" stroke="#C1C1C1" stroke-width="2" stroke-linecap="round" stroke-miterlimit="10" stroke-dasharray="12,8,3" x1="363.98" y1="230.667" x2="363.812" y2="224.004"/>
<line fill="none" stroke="#C1C1C1" stroke-width="2" stroke-linecap="round" stroke-miterlimit="10" stroke-dasharray="12,8,3" x1="385.831" y1="231.115" x2="385.663" y2="224.452"/>
<line fill="none" stroke="#C1C1C1" stroke-width="2" stroke-linecap="round" stroke-miterlimit="10" stroke-dasharray="12,8,3" x1="406.824" y1="230.586" x2="406.656" y2="223.922"/>
<line fill="none" stroke="#C1C1C1" stroke-width="2" stroke-linecap="round" stroke-miterlimit="10" stroke-dasharray="12,8,3" x1="428.676" y1="231.035" x2="428.508" y2="224.371"/>
<line fill="none" stroke="#C1C1C1" stroke-width="2" stroke-linecap="round" stroke-miterlimit="10" stroke-dasharray="12,8,3" x1="449.669" y1="230.505" x2="449.501" y2="223.841"/>
<line fill="none" stroke="#C1C1C1" stroke-width="2" stroke-linecap="round" stroke-miterlimit="10" stroke-dasharray="12,8,3" x1="471.521" y1="230.954" x2="471.353" y2="224.289"/>
<line fill="none" stroke="#C1C1C1" stroke-width="2" stroke-linecap="round" stroke-miterlimit="10" stroke-dasharray="12,8,3" x1="492.514" y1="230.424" x2="492.346" y2="223.76"/>
<line fill="none" stroke="#C1C1C1" stroke-width="2" stroke-linecap="round" stroke-miterlimit="10" stroke-dasharray="12,8,3" x1="514.341" y1="229.873" x2="514.173" y2="223.209"/>
<line fill="none" stroke="#C1C1C1" stroke-width="2" stroke-linecap="round" stroke-miterlimit="10" stroke-dasharray="12,8,3" x1="535.334" y1="229.343" x2="535.166" y2="222.68"/>
<line fill="none" stroke="#C1C1C1" stroke-width="2" stroke-linecap="round" stroke-miterlimit="10" stroke-dasharray="12,8,3" x1="557.186" y1="229.791" x2="557.017" y2="223.128"/>
<line fill="none" stroke="#C1C1C1" stroke-width="2" stroke-linecap="round" stroke-miterlimit="10" stroke-dasharray="12,8,3" x1="578.204" y1="230.262" x2="578.036" y2="223.598"/>
<line fill="none" stroke="#C1C1C1" stroke-width="2" stroke-linecap="round" stroke-miterlimit="10" stroke-dasharray="12,8,3" x1="602.389" y1="230.651" x2="602.22" y2="223.987"/>
<line fill="none" stroke="#C1C1C1" stroke-width="2" stroke-linecap="round" stroke-miterlimit="10" stroke-dasharray="12,8,3" x1="623.381" y1="230.122" x2="623.213" y2="223.457"/>
<line fill="none" stroke="#C1C1C1" stroke-width="2" stroke-linecap="round" stroke-miterlimit="10" stroke-dasharray="12,8,3" x1="645.232" y1="230.57" x2="645.064" y2="223.906"/>
<line fill="none" stroke="#C1C1C1" stroke-width="2" stroke-linecap="round" stroke-miterlimit="10" stroke-dasharray="12,8,3" x1="666.227" y1="230.04" x2="666.058" y2="223.376"/>
<line fill="none" stroke="#C1C1C1" stroke-width="2" stroke-linecap="round" stroke-miterlimit="10" stroke-dasharray="12,8,3" x1="687.57" y1="230.169" x2="687.402" y2="223.504"/>
<line fill="none" stroke="#C1C1C1" stroke-width="2" stroke-linecap="round" stroke-miterlimit="10" stroke-dasharray="12,8,3" x1="707.731" y1="229.66" x2="707.563" y2="222.995"/>
<line fill="none" stroke="#C1C1C1" stroke-width="2" stroke-linecap="round" stroke-miterlimit="10" stroke-dasharray="12,8,3" x1="728.082" y1="230.146" x2="727.914" y2="223.481"/>
<line fill="none" stroke="#C1C1C1" stroke-width="2" stroke-linecap="round" stroke-miterlimit="10" stroke-dasharray="12,8,3" x1="747.909" y1="229.646" x2="747.741" y2="222.98"/>
<line fill="none" stroke="#C1C1C1" stroke-width="2" stroke-linecap="round" stroke-miterlimit="10" stroke-dasharray="12,8,3" x1="766.236" y1="229.183" x2="766.068" y2="222.519"/>
<line fill="none" stroke="#C1C1C1" stroke-width="2" stroke-linecap="round" stroke-miterlimit="10" stroke-dasharray="12,8,3" x1="784.583" y1="68.833" x2="784.583" y2="62.167"/>
<line fill="none" stroke="#C1C1C1" stroke-width="2" stroke-linecap="round" stroke-miterlimit="10" stroke-dasharray="12,8,3" x1="471.417" y1="140.666" x2="471.417" y2="132.5"/>
<line fill="none" stroke="#C1C1C1" stroke-width="2" stroke-linecap="round" stroke-miterlimit="10" stroke-dasharray="12,8,3" x1="492.417" y1="140.166" x2="492.417" y2="133.5"/>
<line fill="none" stroke="#C1C1C1" stroke-width="2" stroke-linecap="round" stroke-miterlimit="10" stroke-dasharray="12,8,3" x1="514.25" y1="140.166" x2="514.25" y2="133.5"/>
<line fill="none" stroke="#C1C1C1" stroke-width="2" stroke-linecap="round" stroke-miterlimit="10" stroke-dasharray="12,8,3" x1="535.25" y1="140.166" x2="535.25" y2="133.5"/>
<line fill="none" stroke="#C1C1C1" stroke-width="2" stroke-linecap="round" stroke-miterlimit="10" stroke-dasharray="12,8,3" x1="557.083" y1="140.25" x2="557.083" y2="132.5"/>
<line fill="none" stroke="#C1C1C1" stroke-width="2" stroke-linecap="round" stroke-miterlimit="10" stroke-dasharray="12,8,3" x1="578.083" y1="141" x2="578.083" y2="132.5"/>
<line fill="none" stroke="#C1C1C1" stroke-width="2" stroke-linecap="round" stroke-miterlimit="10" stroke-dasharray="12,8,3" x1="602.25" y1="139.166" x2="602.25" y2="132.5"/>
<line fill="none" stroke="#C1C1C1" stroke-width="2" stroke-linecap="round" stroke-miterlimit="10" stroke-dasharray="12,8,3" x1="623.25" y1="139.166" x2="623.25" y2="132.5"/>
<line fill="none" stroke="#C1C1C1" stroke-width="2" stroke-linecap="round" stroke-miterlimit="10" stroke-dasharray="12,8,3" x1="645.083" y1="140.166" x2="645.083" y2="133.5"/>
<line fill="none" stroke="#C1C1C1" stroke-width="2" stroke-linecap="round" stroke-miterlimit="10" stroke-dasharray="12,8,3" x1="666.083" y1="139.166" x2="666.083" y2="132.5"/>
<line fill="none" stroke="#C1C1C1" stroke-width="2" stroke-linecap="round" stroke-miterlimit="10" stroke-dasharray="12,8,3" x1="687.417" y1="139.833" x2="687.417" y2="133.166"/>
<line fill="none" stroke="#C1C1C1" stroke-width="2" stroke-linecap="round" stroke-miterlimit="10" stroke-dasharray="12,8,3" x1="707.584" y1="139.833" x2="707.584" y2="133.166"/>
<line fill="none" stroke="#C1C1C1" stroke-width="2" stroke-linecap="round" stroke-miterlimit="10" stroke-dasharray="12,8,3" x1="727.917" y1="139.833" x2="727.917" y2="133.166"/>
<line fill="none" stroke="#C1C1C1" stroke-width="2" stroke-linecap="round" stroke-miterlimit="10" stroke-dasharray="12,8,3" x1="747.75" y1="139.833" x2="747.75" y2="133.166"/>
<line fill="none" stroke="#C1C1C1" stroke-width="2" stroke-linecap="round" stroke-miterlimit="10" stroke-dasharray="12,8,3" x1="766.083" y1="139.833" x2="766.083" y2="133.166"/>
<line fill="none" stroke="#C1C1C1" stroke-width="2" stroke-linecap="round" stroke-miterlimit="10" stroke-dasharray="12,8,3" x1="784.583" y1="139.833" x2="784.583" y2="133.166"/>
<polyline fill="none" stroke="#4C484F" stroke-width="2" stroke-linecap="round" stroke-miterlimit="10" points="811,133.5 
	462.5,131.5 455,130.5 117.667,47 "/>
<line fill="none" stroke="#4C484F" stroke-width="2" stroke-linecap="round" stroke-miterlimit="10" x1="449.084" y1="137.5" x2="471.667" y2="131.584"/>
<line fill="none" stroke="#4C484F" stroke-width="2" stroke-linecap="round" stroke-miterlimit="10" x1="446.334" y1="136.917" x2="465.167" y2="141.417"/>
<rect x="796.666" y="48.834" fill="#515151" width="114.001" height="196"/>
<polyline fill="none" stroke="#4C484F" stroke-width="2" stroke-linecap="round" stroke-miterlimit="10" points="34.878,51.941 
	378.189,61.736 741.117,68.278 812.008,69.666 "/>
<line fill="none" stroke="#4C484F" stroke-width="2" stroke-linecap="round" stroke-miterlimit="10" x1="35.667" y1="45.167" x2="810.333" y2="62.5"/>
<line fill="none" stroke="#4C484F" stroke-width="2" stroke-linecap="round" stroke-miterlimit="10" x1="35.48" y1="224.955" x2="810.338" y2="222.735"/>
<polyline fill="none" stroke="#4C484F" stroke-width="2" stroke-linecap="round" stroke-miterlimit="10" points="115,224.166 
	449,137.301 109.5,54.5 "/>
<polyline fill="none" stroke="#4C484F" stroke-width="2" stroke-linecap="round" stroke-miterlimit="10" points="801.334,140.5 
	460.333,141.834 117.5,231.25 "/>

	<g>
	
		<rect x="162.084" y="88.082" fill="#FFFFFF" stroke="#231F20" stroke-width="3" stroke-miterlimit="10" width="24.834" height="24.836"/>
		<rect id="F1" x="167" y="93" fill="#a3a3a3" stroke="#231F20" stroke-width="0.5" stroke-miterlimit="10" width="15" height="15"/>
		<title id="F1"></title>
		<rect x="130" y="90" fill="#232323" width="29" height="18"/>
		<text class="yardfinchtexsty" fill="#1cd4c6" font-size="30" font-family="'MyriadPro-Regular'" stroke-width="3" transform="matrix(1 0 0 1 130 107)">F1</text>
</g>
	<g>

		<rect x="162.084" y="153.582" fill="#FFFFFF" stroke="#231F20" stroke-width="3" stroke-miterlimit="10" width="24.834" height="24.836"/>
		<rect id="F2" x="167" y="158.5" fill="#a3a3a3" stroke="#231F20" stroke-width="0.5" stroke-miterlimit="10" width="15" height="15"/>
		<title id="F2"></title>
		<rect x="130" y="157" fill="#232323" width="29" height="18"/>
		<text class="yardfinchtexsty" fill="#1cd4c6" font-size="30" font-family="'MyriadPro-Regular'" stroke-width="3" transform="matrix(1 0 0 1 130 174)">F2</text>
</g>
	<g>

		<rect x="796.584" y="53.082" fill="#FFFFFF" stroke="#231F20" stroke-width="3" stroke-miterlimit="10" width="24.834" height="24.836"/>
		<rect id="FTT1" x="801.5" y="58" fill="#00FF3C" stroke="#231F20" stroke-width="0.5" stroke-miterlimit="10" width="15" height="15"/>
		<title id="FTT1"></title>
		<rect x="824" y="57" fill="#232323" width="58" height="18"/>
		<text class="yardfinchtexsty" fill="#1cd4c6" font-size="30" font-family="'MyriadPro-Regular'" stroke-width="3" transform="matrix(1 0 0 1 823 74)">FTT1</text>
</g>
	<g>

		<rect x="796.584" y="126.082" fill="#FFFFFF" stroke="#231F20" stroke-width="3" stroke-miterlimit="10" width="24.834" height="24.836"/>
		<rect id="FTT2" x="801.5" y="131" fill="#00FF3C" stroke="#231F20" stroke-width="0.5" stroke-miterlimit="10" width="15" height="15"/>
		<title id="FTT2"></title>
		<rect x="824" y="129" fill="#232323" width="58" height="18"/>
		<text class="yardfinchtexsty" fill="#1cd4c6" font-size="30" font-family="'MyriadPro-Regular'" stroke-width="3" transform="matrix(1 0 0 1 823 146)">FTT2</text>
</g>
	<g>

		<rect x="796.584" y="211.082" fill="#FFFFFF" stroke="#231F20" stroke-width="3" stroke-miterlimit="10" width="24.834" height="24.836"/>
		<rect id="FTT3" x="801.5" y="216" fill="#00FF3C" stroke="#231F20" stroke-width="0.5" stroke-miterlimit="10" width="15" height="15"/>
		<title id="FTT3"></title>
		<rect x="824" y="215" fill="#232323" width="58" height="18"/>
		<text class="yardfinchtexsty" fill="#1cd4c6" font-size="30" font-family="'MyriadPro-Regular'" stroke-width="3" transform="matrix(1 0 0 1 823 232)">FTT3</text>
</g>

</svg>
