<?xml version="1.0" encoding="utf-8"?>
<!-- Generator: Adobe Illustrator 16.0.0, SVG Export Plug-In . SVG Version: 6.00 Build 0)  -->
<!DOCTYPE svg PUBLIC "-//W3C//DTD SVG 1.1//EN" "http://www.w3.org/Graphics/SVG/1.1/DTD/svg11.dtd">
<svg version="1.1" id="Layer_1" xmlns="http://www.w3.org/2000/svg" xmlns:xlink="http://www.w3.org/1999/xlink" x="0px" y="0px"
	 width="451.477px" height="403px" viewBox="0 0 451.477 403" enable-background="new 0 0 451.477 403" xml:space="preserve">
<path fill="none" stroke="#FFCB09" stroke-width="14" stroke-linecap="round" stroke-miterlimit="10" d="M112.696,13.114v26.453
	l121.982,74.61l4.117,68.125l77.736,45.531v24.56h38.715v99.279c0,0,1.703,22.45,26.949,25.514"/>

	<circle id="voughan_metropolitan_centre" fill="#FFFFFF" stroke="#333333" stroke-linecap="round" stroke-miterlimit="10" cx="113.169" cy="22.24" r="3.369">
<title>Vaughan Metropolitan Centre</title>
</circle>
	<circle id="highway_407" fill="#FFFFFF" stroke="#333333" stroke-linecap="round" stroke-miterlimit="10" cx="113.619" cy="40.357" r="3.369">
<title>Highway 407</title>
</circle>
	<circle id="pioneer_village" fill="#FFFFFF" stroke="#333333" stroke-linecap="round" stroke-miterlimit="10" cx="138.624" cy="56.379" r="3.369">
<title>Pioneer Village</title>
</circle>
	<circle id="york_university" fill="#FFFFFF" stroke="#333333" stroke-linecap="round" stroke-miterlimit="10" cx="163.48" cy="70.304" r="3.369">
<title>York University</title>
</circle>
	<circle id="finch_west" fill="#FFFFFF" stroke="#333333" stroke-linecap="round" stroke-miterlimit="10" cx="188.186" cy="85.128" r="3.369">
<title>Finch West</title>
</circle>
	<circle id="downsview_park" fill="#FFFFFF" stroke="#333333" stroke-linecap="round" stroke-miterlimit="10" cx="213.042" cy="100.314" r="3.369">
<title>Downsview Park</title>
</circle>
	<circle id="sheppardwest" fill="#FFFFFF" stroke="#333333" stroke-linecap="round" stroke-miterlimit="10" cx="234.738" cy="114.177" r="3.369">
<title>Sheppard West</title>
</circle>
	<circle id="wilson" fill="#FFFFFF" stroke="#333333" stroke-linecap="round" stroke-miterlimit="10" cx="236.424" cy="133.031" r="3.37">
<title>Wilson</title>
</circle>
	<circle id="yorkdale" fill="#FFFFFF" stroke="#333333" stroke-linecap="round" stroke-miterlimit="10" cx="237.749" cy="145.703" r="3.369">
<title>Yorkdale</title>
</circle>
	<circle id="lawrence_west" fill="#FFFFFF" stroke="#333333" stroke-linecap="round" stroke-miterlimit="10" cx="237.54" cy="158.498" r="3.369">
<title>Lawrence West</title>
</circle>
	<circle id="glencairn" fill="#FFFFFF" stroke="#333333" stroke-linecap="round" stroke-miterlimit="10" cx="238.11" cy="171.273" r="3.37">
<title>Glencairn</title>
</circle>
	<circle id="eglinton_west" fill="#FFFFFF" stroke="#333333" stroke-linecap="round" stroke-miterlimit="10" cx="238.795" cy="182.301" r="3.369">
<title>Eglinton West</title>
</circle>
	<circle id="st_clair_west" fill="#FFFFFF" stroke="#333333" stroke-linecap="round" stroke-miterlimit="10" cx="290.604" cy="212.898" r="3.369">
<title>St Clair West</title>
</circle>
	<circle id="dupont" fill="#FFFFFF" stroke="#333333" stroke-linecap="round" stroke-miterlimit="10" cx="315.885" cy="229.557" r="3.369">
<title>Dupont</title>
</circle>
	<circle id="spadina" fill="#FFFFFF" stroke="#333333" stroke-linecap="round" stroke-miterlimit="10" cx="318.131" cy="252.391" r="3.369">
<title>Spadina</title>
</circle>
	<circle id="st_george" fill="#FFFFFF" stroke="#333333" stroke-linecap="round" stroke-miterlimit="10" cx="355.586" cy="270.33" r="3.369">
<title>St George</title>
</circle>
	<circle id="museum" fill="#FFFFFF" stroke="#333333" stroke-linecap="round" stroke-miterlimit="10" cx="355.586" cy="290.582" r="3.369">
<title>Museum</title>
</circle>
	<circle id="queens_park" fill="#FFFFFF" stroke="#333333" stroke-linecap="round" stroke-miterlimit="10" cx="355.586" cy="306.303" r="3.369">
<title>Queens Park</title>
</circle>
	<circle id="st_patrick" fill="#FFFFFF" stroke="#333333" stroke-linecap="round" stroke-miterlimit="10" cx="355.586" cy="321.126" r="3.369">
<title>St Patrick</title>
</circle>
	<circle id="osgoode" fill="#FFFFFF" stroke="#333333" stroke-linecap="round" stroke-miterlimit="10" cx="355.586" cy="335.949" r="3.369">
<title>Osgoode</title>
</circle>
	<circle id="st_andrew" fill="#FFFFFF" stroke="#333333" stroke-linecap="round" stroke-miterlimit="10" cx="355.586" cy="351.67" r="3.369">
<title>St Andrew</title>
</circle>
	<circle id="union" fill="#FFFFFF" stroke="#333333" stroke-linecap="round" stroke-miterlimit="10" cx="382.375" cy="376.288" r="3.369">
<title>Union</title>
</circle>

<text id="highway_407_txt" transform="matrix(1 0 0 1 15.0283 45.5273)" font-family="'MyriadPro-Regular'" font-size="11.6792">Highway 407</text>
<text id="york_university_txt" transform="matrix(1 0 0 1 55.9736 85.1318)" font-family="'MyriadPro-Regular'" font-size="11.6792">York University</text>
<text id="downsview_park_txt" transform="matrix(1 0 0 1 95.4551 113.8555)" font-family="'MyriadPro-Regular'" font-size="11.6792">Downsview Park</text>
<text id="wilson_txt" transform="matrix(1 0 0 1 170.6484 137.0654)" font-family="'MyriadPro-Regular'" font-size="11.6792">Wilson</text>
<text id="lawrence_west_txt" transform="matrix(1 0 0 1 122.6436 161.8711)" font-family="'MyriadPro-Regular'" font-size="11.6792">Lawrence West</text>
<text id="eglinton_west_txt" transform="matrix(1 0 0 1 129.0078 186.9014)" font-family="'MyriadPro-Regular'" font-size="11.6792">Eglinton West</text>
<text id="st_clair_west_txt" transform="matrix(1 0 0 1 190.9902 224.6914)" font-family="'MyriadPro-Regular'" font-size="11.6792">St. Clair West</text>
<text id="spadina_txt" transform="matrix(1 0 0 1 244.686 256.2373)" font-family="'MyriadPro-Regular'" font-size="11.6792">Spadina</text>
<text id="st_george_txt" transform="matrix(1 0 0 1 272.3267 274.1406)" font-family="'MyriadPro-Regular'" font-size="11.6792">St. George</text>
<text id="museum_txt" transform="matrix(1 0 0 1 280.7642 294.9561)" font-family="'MyriadPro-Regular'" font-size="11.6792">Museum</text>
<text id="queens_park_txt" transform="matrix(1 0 0 1 252.4399 310.6777)" font-family="'MyriadPro-Regular'" font-size="11.6792">Queen’s Park</text>
<text id="st_patrick_txt" transform="matrix(1 0 0 1 276.3677 326.3213)" font-family="'MyriadPro-Regular'" font-size="11.6792">St. Patrick</text>
<text id="osgoode_txt" transform="matrix(1 0 0 1 280.2661 341.0713)" font-family="'MyriadPro-Regular'" font-size="11.6792">Osgoode</text>
<text id="st_andrew_txt" transform="matrix(1 0 0 1 271.2778 356.0439)" font-family="'MyriadPro-Regular'" font-size="11.6792">St. Andrew</text>
<text id="union_txt" transform="matrix(1 0 0 1 368.8032 396.9951)" font-family="'MyriadPro-Regular'" font-size="11.6792">Union</text>
<text id="glencairn_txt" transform="matrix(1 0 0 1 256.936 174.6465)" font-family="'MyriadPro-Regular'" font-size="11.6792">Glencairn</text>
<text id="yorkdale_txt" transform="matrix(1 0 0 1 253.9341 149.7383)" font-family="'MyriadPro-Regular'" font-size="11.6792">Yorkdale</text>
<text id="sheppardwest_txt" transform="matrix(1 0 0 1 247.9341 114.5469)" font-family="'MyriadPro-Regular'" font-size="11.6792">Sheppard West</text>
<text id="finch_west_txt" transform="matrix(1 0 0 1 206.9609 81.7617)" font-family="'MyriadPro-Regular'" font-size="11.6792">Finch West</text>
<text id="pioneer_village_txt" transform="matrix(1 0 0 1 149.3525 48.5078)" font-family="'MyriadPro-Regular'" font-size="11.6792">Pioneer Village</text>
<text id="voughan_metropolitan_centre_txt" transform="matrix(1 0 0 1 130.5273 25.6133)" font-family="'MyriadPro-Semibold'" font-size="11.9787">Vaughan Metropolitan Centre</text>
<text id="dupont_txt" transform="matrix(1 0 0 1 332.9907 231.9277)" font-family="'MyriadPro-Regular'" font-size="11.6792">Dupont</text>


</svg>
