<?xml version="1.0" encoding="utf-8"?>
<!-- Generator: Adobe Illustrator 16.0.0, SVG Export Plug-In . SVG Version: 6.00 Build 0)  -->
<!DOCTYPE svg PUBLIC "-//W3C//DTD SVG 1.1//EN" "http://www.w3.org/Graphics/SVG/1.1/DTD/svg11.dtd">
<svg version="1.1" xmlns="http://www.w3.org/2000/svg" xmlns:xlink="http://www.w3.org/1999/xlink" x="0px" y="0px" style="margin-top:100px;"
	 width="678.067px" height="604px" viewBox="0 0 678.067 604" enable-background="new 0 0 678.067 604" xml:space="preserve">
<g id="section1">
	<polyline fill="none" stroke="#FFCB09" stroke-width="20" stroke-linecap="round" stroke-miterlimit="10" points="131.484,19.858 
		131.484,55.342 319.32,165.719 320.452,269.678 439.813,340.117 439.813,378.071 	"/>
</g>
<g id="section2">
	<path fill="none" stroke="#FFCB09" stroke-width="20" stroke-linecap="round" stroke-miterlimit="10" d="M439.581,377.575h57.543
		v146.079c0,0,0.339,34.312,40.765,40.427c0,0,37.709-2.378,40.767-41.106l0.34-420.232"/>
</g>
<g id="lane4">
</g>

<g id="Dots">
	<circle id="voughan_metropolitan_centre" fill="#FFFFFF" stroke="#333333" stroke-linecap="round" stroke-miterlimit="10" cx="132.2" cy="29.133" r="5.096"/>
	<circle id="highway_407" fill="#FFFFFF" stroke="#333333" stroke-linecap="round" stroke-miterlimit="10" cx="132.88" cy="56.538" r="5.096"/>

	<circle id="pioneer_village" fill="#FFFFFF" stroke="#333333" stroke-linecap="round" stroke-miterlimit="10" cx="170.704" cy="80.773" r="5.096"/>
	<circle id="york_university" fill="#FFFFFF" stroke="#333333" stroke-linecap="round" stroke-miterlimit="10" cx="208.301" cy="101.836" r="5.096"/>
	<circle id="finch_west" fill="#FFFFFF" stroke="#333333" stroke-linecap="round" stroke-miterlimit="10" cx="245.673" cy="124.259" r="5.096"/>
	<circle id="downsview_park" fill="#FFFFFF" stroke="#333333" stroke-linecap="round" stroke-miterlimit="10" cx="283.27" cy="146.229" r="5.096"/>
	<circle id="sheppardwest" fill="#FFFFFF" stroke="#333333" stroke-linecap="round" stroke-miterlimit="10" cx="321.094" cy="168.199" r="5.096"/>
	<circle id="wilson" fill="#FFFFFF" stroke="#333333" stroke-linecap="round" stroke-miterlimit="10" cx="320.641" cy="197.719" r="5.096"/>
	<circle id="yorkdale" fill="#FFFFFF" stroke="#333333" stroke-linecap="round" stroke-miterlimit="10" cx="320.641" cy="216.888" r="5.096"/>
	<circle id="lawrence_west" fill="#FFFFFF" stroke="#333333" stroke-linecap="round" stroke-miterlimit="10" cx="320.328" cy="235.24" r="5.096"/>
	<circle id="glencairn" fill="#FFFFFF" stroke="#333333" stroke-linecap="round" stroke-miterlimit="10" cx="320.188" cy="254.564" r="5.096"/>
	<circle id="eglinton_west" fill="#FFFFFF" stroke="#333333" stroke-linecap="round" stroke-miterlimit="10" cx="322.227" cy="271.246" r="5.096"/>
	<circle id="st_clair_west" fill="#FFFFFF" stroke="#333333" stroke-linecap="round" stroke-miterlimit="10" cx="400.592" cy="317.528" r="5.096"/>
	<circle id="dupont" fill="#FFFFFF" stroke="#333333" stroke-linecap="round" stroke-miterlimit="10" cx="438.835" cy="342.726" r="5.096"/>
	<circle id="spadina" fill="#FFFFFF" stroke="#333333" stroke-linecap="round" stroke-miterlimit="10" cx="442.233" cy="377.266" r="5.096"/>
	<circle id="st_george" fill="#FFFFFF" stroke="#333333" stroke-linecap="round" stroke-miterlimit="10" cx="497.17" cy="398.345" r="5.096"/>
	<circle id="museum" fill="#FFFFFF" stroke="#333333" stroke-linecap="round" stroke-miterlimit="10" cx="497.17" cy="435.034" r="5.096"/>
	<circle id="queens_park" fill="#FFFFFF" stroke="#333333" stroke-linecap="round" stroke-miterlimit="10" cx="497.398" cy="458.815" r="5.096"/>
	<circle id="st_patrick" fill="#FFFFFF" stroke="#333333" stroke-linecap="round" stroke-miterlimit="10" cx="497.624" cy="481.236" r="5.096"/>
	<circle id="osgoode" fill="#FFFFFF" stroke="#333333" stroke-linecap="round" stroke-miterlimit="10" cx="498.983" cy="503.658" r="5.096"/>
	<circle id="st_andrew" fill="#FFFFFF" stroke="#333333" stroke-linecap="round" stroke-miterlimit="10" cx="498.983" cy="527.438" r="5.096"/>
	<circle id="union" fill="#FFFFFF" stroke="#333333" stroke-linecap="round" stroke-miterlimit="10" cx="539.41" cy="563.675" r="5.096"/>
	<circle id="king" fill="#FFFFFF" stroke="#333333" stroke-linecap="round" stroke-miterlimit="10" cx="578.704" cy="527.438" r="5.096"/>
	<circle id="queen" fill="#FFFFFF" stroke="#333333" stroke-linecap="round" stroke-miterlimit="10" cx="578.477" cy="504.79" r="5.096"/>
	<circle id="dundas" fill="#FFFFFF" stroke="#333333" stroke-linecap="round" stroke-miterlimit="10" cx="578.477" cy="481.236" r="5.096"/>
	<circle id="collage" fill="#FFFFFF" stroke="#333333" stroke-linecap="round" stroke-miterlimit="10" cx="578.477" cy="458.815" r="5.096"/>
	<circle id="wellesley" fill="#FFFFFF" stroke="#333333" stroke-linecap="round" stroke-miterlimit="10" cx="578.704" cy="435.034" r="5.096"/>
	<circle id="bloor_yonge" fill="#FFFFFF" stroke="#333333" stroke-linecap="round" stroke-miterlimit="10" cx="578.704" cy="398.529" r="5.096"/>
	<circle id="rosedale" fill="#FFFFFF" stroke="#333333" stroke-linecap="round" stroke-miterlimit="10" cx="578.704" cy="365.915" r="5.096"/>
	<circle id="st_clair" fill="#FFFFFF" stroke="#333333" stroke-linecap="round" stroke-miterlimit="10" cx="578.704" cy="318.888" r="5.096"/>
	<circle id="davisville" fill="#FFFFFF" stroke="#333333" stroke-linecap="round" stroke-miterlimit="10" cx="578.477" cy="295.616" r="5.096"/>
	<circle id="eglinton" fill="#FFFFFF" stroke="#333333" stroke-linecap="round" stroke-miterlimit="10" cx="578.477" cy="273.328" r="5.096"/>
	<circle id="lawrence" fill="#FFFFFF" stroke="#333333" stroke-linecap="round" stroke-miterlimit="10" cx="578.477" cy="235.24" r="5.096"/>
	<circle id="york_mills" fill="#FFFFFF" stroke="#333333" stroke-linecap="round" stroke-miterlimit="10" cx="578.477" cy="197.719" r="5.096"/>
	<circle id="sheppard_yonge" fill="#FFFFFF" stroke="#333333" stroke-linecap="round" stroke-miterlimit="10" cx="579.836" cy="168.199" r="5.096"/>
	<circle id="north_york_centre" fill="#FFFFFF" stroke="#333333" stroke-linecap="round" stroke-miterlimit="10" cx="578.704" cy="135.811" r="5.096"/>
	<circle id="finch" fill="#FFFFFF" stroke="#333333" stroke-linecap="round" stroke-miterlimit="10" cx="578.704" cy="109.651" r="5.096"/>
	<circle id="summerhill" fill="#FFFFFF" stroke="#333333" stroke-linecap="round" stroke-miterlimit="10" cx="578.477" cy="342.726" r="5.096"/>
</g>
	<g id="labels">
	<text id="highway_407_txt" transform="matrix(1 0 0 1 25.5537 64.3535)" font-family="'MyriadPro-Regular'" font-size="17.6663">Highway 407</text>

		<text id="york_university_txt" transform="matrix(1 0 0 1 87.6157 108.2603)" font-family="'MyriadPro-Regular'" font-size="17.6663">York University</text>
		<text id="downsview_park_txt" transform="matrix(1 0 0 1 153.8237 155.1938)" font-family="'MyriadPro-Regular'" font-size="17.6663">Downsview Park</text>
		<text id="wilson_txt" transform="matrix(1 0 0 1 250.9219 202.8164)" font-family="'MyriadPro-Regular'" font-size="17.6663">Wilson</text>
		<text id="lawrence_west_txt" transform="matrix(1 0 0 1 201.9219 240.3374)" font-family="'MyriadPro-Regular'" font-size="17.6663">Lawrence West</text>
		<text id="eglinton_west_txt" transform="matrix(1 0 0 1 211.5479 278.1987)" font-family="'MyriadPro-Regular'" font-size="17.6663">Eglinton West</text>
		<text id="st_clair_west_txt" transform="matrix(1 0 0 1 298.3281 335.3618)" font-family="'MyriadPro-Regular'" font-size="17.6663">St Clair West</text>
		<text id="spadina_txt" transform="matrix(1 0 0 1 364.4268 383.0791)" font-family="'MyriadPro-Regular'" font-size="17.6663">Spadina</text>
		<text id="st_george_txt" transform="matrix(1 0 0 1 406.2373 402.646)" font-family="'MyriadPro-Regular'" font-size="17.6663">St George</text>
		<text id="museum_txt" transform="matrix(1 0 0 1 415.9756 440.1313)" font-family="'MyriadPro-Regular'" font-size="17.6663">Museum</text>
		<text id="queens_park_txt" transform="matrix(1 0 0 1 386.7441 463.9121)" font-family="'MyriadPro-Regular'" font-size="17.6663">Queen’s Park</text>
		<text id="st_patrick_txt" transform="matrix(1 0 0 1 412.3496 487.5757)" font-family="'MyriadPro-Regular'" font-size="17.6663">St Patrick</text>
		<text id="osgoode_txt" transform="matrix(1 0 0 1 413.71 509.8867)" font-family="'MyriadPro-Regular'" font-size="17.6663">Osgoode</text>
		<text id="st_andrew_txt" transform="matrix(1 0 0 1 404.6494 532.5342)" font-family="'MyriadPro-Regular'" font-size="17.6663">St Andrew</text>
		<text id="union_txt" transform="matrix(1 0 0 1 522.8896 590.9932)" font-family="'MyriadPro-Regular'" font-size="17.6663">Union</text>
		<text id="king_txt" transform="matrix(1 0 0 1 595.8936 532.5342)" font-family="'MyriadPro-Regular'" font-size="17.6663">King</text>
		<text id="queen_txt" transform="matrix(1 0 0 1 595.8936 509.8867)" font-family="'MyriadPro-Regular'" font-size="17.6663">Queen</text>
		<text id="dundas_txt" transform="matrix(1 0 0 1 595.8936 488.4819)" font-family="'MyriadPro-Regular'" font-size="17.6663">Dundas</text>
		<text id="collage_txt" transform="matrix(1 0 0 1 595.8936 463.9121)" font-family="'MyriadPro-Regular'" font-size="17.6663">College</text>
		<text id="wellesley_txt" transform="matrix(1 0 0 1 593.8555 440.1313)" font-family="'MyriadPro-Regular'" font-size="17.6663">Wellesley</text>
		<text id="rosedale_txt" transform="matrix(1 0 0 1 595.8936 371.0112)" font-family="'MyriadPro-Regular'" font-size="17.6663">Rosedale</text>
		<text id="st_clair_txt" transform="matrix(1 0 0 1 593.8555 323.9844)" font-family="'MyriadPro-Regular'" font-size="17.6663">St Clair</text>
		<text id="eglinton_txt" transform="matrix(1 0 0 1 595.8936 278.4248)" font-family="'MyriadPro-Regular'" font-size="17.6663">Eglinton</text>
		<text id="york_mills_txt" transform="matrix(1 0 0 1 595.8555 201.8916)" font-family="'MyriadPro-Regular'" font-size="17.6663">York Mills</text>
		<text id="finch_txt" transform="matrix(1 0 0 1 596.5908 114.7485)" font-family="'MyriadPro-Regular'" font-size="17.6663">Finch</text>
		<text id="north_york_centre_txt" transform="matrix(1 0 0 1 446.9297 141.1338)" font-family="'MyriadPro-Regular'" font-size="17.6663">North York Centre</text>
		<text id="sheppard_yonge_txt" transform="matrix(1 0 0 1 456.0635 172.4355)">Sheppard Yonge</text>
		<text id="lawrence_txt" transform="matrix(1 0 0 1 491.7764 240.3374)" font-family="'MyriadPro-Regular'" font-size="17.6663">Lawrence</text>
		<text id="davisville_txt" transform="matrix(1 0 0 1 494.8672 301.3813)" font-family="'MyriadPro-Regular'" font-size="17.6663">Davisville</text>
		<text id="summerhill_txt" transform="matrix(1 0 0 1 593.209 347.1831)" font-family="'MyriadPro-Regular'" font-size="17.6663">Summerhill</text>
		<text id="bloor_yonge_txt" transform="matrix(1 0 0 1 595.623 404.3384)">Bloor Yonge</text>
		<text id="glencairn_txt" transform="matrix(1 0 0 1 337.5732 259.6616)" font-family="'MyriadPro-Regular'" font-size="17.6663">Glencairn</text>
		<text id="yorkdale_txt" transform="matrix(1 0 0 1 337.5732 221.9854)" font-family="'MyriadPro-Regular'" font-size="17.6663">Yorkdale</text>
		<text id="sheppardwest_txt" transform="matrix(1 0 0 1 199.5732 175.1035)">Sheppard West</text>
		<text id="finch_west_txt" transform="matrix(1 0 0 1 255.4268 109.6533)" font-family="'MyriadPro-Regular'" font-size="17.6663">Finch West</text>
		<text id="pioneer_village_txt" transform="matrix(1 0 0 1 179.3804 68.8618)" font-family="'MyriadPro-Regular'" font-size="17.6663">Pioneer Village</text>
		<text id="voughan_metropolitan_centre_txt" transform="matrix(1 0 0 1 144.854 34.23)" font-family="'MyriadPro-Semibold'" font-size="18.1193">Vaughan Metropolitan Centre</text>
		<text id="dupont_txt" transform="matrix(1 0 0 1 455.0352 346.7212)" font-family="'MyriadPro-Regular'" font-size="17.6663">Dupont</text>
</g>
</svg>
