<?xml version="1.0" encoding="utf-8"?>
<!-- Generator: Adobe Illustrator 16.0.0, SVG Export Plug-In . SVG Version: 6.00 Build 0)  -->
<!DOCTYPE svg PUBLIC "-//W3C//DTD SVG 1.1//EN" "http://www.w3.org/Graphics/SVG/1.1/DTD/svg11.dtd">
<svg version="1.1" id="Layer_1" xmlns="http://www.w3.org/2000/svg" xmlns:xlink="http://www.w3.org/1999/xlink" x="0px" y="0px"
	 width="1186px" height="219px" viewBox="0 0 1186 219" enable-background="new 0 0 1186 219" xml:space="preserve">
<path fill="#C6C4C4" stroke="#606060" stroke-miterlimit="10" d="M878.999,137.766c0,5.824-4.723,10.549-10.549,10.549H477.91
	c-5.826,0-10.549-4.725-10.549-10.549V86.192c0-5.826,4.723-10.549,10.549-10.549h390.54c5.826,0,10.549,4.723,10.549,10.549
	V137.766z"/>
<g id="Layer_1_1_">
</g>
<circle id="SB-R2" fill="#FFFFFF" stroke="#373836" stroke-miterlimit="10" cx="852.656" cy="93.55" r="11.75">
<title  id="SB-R2"></title>
</circle>
<circle id="NB-R2" fill="#FFFFFF" stroke="#373836" stroke-miterlimit="10" cx="852.865" cy="128.533" r="11.75">
<title  id="NB-R2"></title>
</circle>
<circle id="C1" fill="#FFFFFF" stroke="#373836" stroke-miterlimit="10" cx="630.514" cy="93.637" r="10.75">
<title  id="C1"></title>
</circle>
<circle id="C2" fill="#FFFFFF" stroke="#373836" stroke-miterlimit="10" cx="660.174" cy="93.637" r="10.75">
<title  id="C2"></title>
</circle>
<circle id="C3" fill="#FFFFFF" stroke="#373836" stroke-miterlimit="10" cx="691.181" cy="93.637" r="10.75">
<title  id="C3"></title>
</circle>
<circle id="C4" fill="#FFFFFF" stroke="#373836" stroke-miterlimit="10" cx="720.841" cy="93.637" r="10.75">
<title  id="C4"></title>
</circle>
<circle id="C5" fill="#FFFFFF" stroke="#373836" stroke-miterlimit="10" cx="630.514" cy="129.534" r="10.75">
<title  id="C5"></title>
</circle>
<circle id="C6" fill="#FFFFFF" stroke="#373836" stroke-miterlimit="10" cx="660.174" cy="129.534" r="10.75">
<title  id="C6"></title>
</circle>
<circle id="C7" fill="#FFFFFF" stroke="#373836" stroke-miterlimit="10" cx="691.181" cy="129.534" r="10.75">
<title  id="C7"></title>
</circle>
<circle id="C8" fill="#FFFFFF" stroke="#373836" stroke-miterlimit="10" cx="720.841" cy="129.534" r="10.75">
<title  id="C8"></title>
</circle>
<circle id="SB-R1" fill="#FFFFFF" stroke="#373836" stroke-miterlimit="10" cx="497.156" cy="93.637" r="11.75">
<title  id="SB-R1"></title>
</circle>
<circle id="NB-R1" fill="#FFFFFF" stroke="#373836" stroke-miterlimit="10" cx="497.365" cy="128.621" r="11.75">
<title  id="NB-R1"></title>
</circle>
<circle id="TC1" fill="#FFFFFF" stroke="#373836" stroke-miterlimit="10" cx="563.555" cy="94.608" r="10.75">
<title  id="TC1"></title>
</circle>
<circle fill="#66CC33" stroke="#373836" stroke-miterlimit="10" cx="44.425" cy="66.458" r="11.75"/>
<circle id="TC2" fill="#FFFFFF" stroke="#373836" stroke-miterlimit="10" cx="783.245" cy="129.639" r="10.75">
<title  id="TC2"></title>
</circle>
<circle fill="#66CC33" stroke="#373836" stroke-miterlimit="10" cx="44.425" cy="96.901" r="11.75"/>
<circle fill="#66CC33" stroke="#373836" stroke-miterlimit="10" cx="44.425" cy="124.403" r="11.75"/>
<circle fill="#66CC33" stroke="#373836" stroke-miterlimit="10" cx="44.425" cy="152.636" r="11.75"/>
<g id="track">
	
		<linearGradient id="SVGID_1_" gradientUnits="userSpaceOnUse" x1="-245.0586" y1="-465.9541" x2="735.6074" y2="-465.9541" gradientTransform="matrix(1 0 0 -1 433.7197 -399.5801)">
		<stop  offset="0.0269" style="stop-color:#FFFFFF"/>
		<stop  offset="0.1129" style="stop-color:#000000"/>
		<stop  offset="0.8226" style="stop-color:#000000"/>
		<stop  offset="0.9462" style="stop-color:#FFFFFF"/>
	</linearGradient>
	<path fill="none" stroke="url(#SVGID_1_)" stroke-miterlimit="10" d="M1169.327,74.121H936.245c-10.75,0.25-39.25-7-49.25-9.25
		s-29-6.25-29-6.25h-64.75c0,0-293,0-298.5,0s-71,14-71,14l-52.5,1.5H188.661"/>
	
		<linearGradient id="SVGID_2_" gradientUnits="userSpaceOnUse" x1="-245.0586" y1="-450.4482" x2="735.6074" y2="-450.4482" gradientTransform="matrix(1 0 0 -1 433.7197 -399.5801)">
		<stop  offset="0.0269" style="stop-color:#FFFFFF"/>
		<stop  offset="0.1129" style="stop-color:#000000"/>
		<stop  offset="0.8226" style="stop-color:#000000"/>
		<stop  offset="0.9462" style="stop-color:#FFFFFF"/>
	</linearGradient>
	<path fill="none" stroke="url(#SVGID_2_)" stroke-miterlimit="10" d="M1169.327,58.615H936.245c-10.75,0.25-39.25-7-49.25-9.25
		s-29-6.25-29-6.25h-64.75c0,0-293,0-298.5,0s-71,14-71,14l-52.5,1.5H188.661"/>
	
		<linearGradient id="SVGID_3_" gradientUnits="userSpaceOnUse" x1="-245.0586" y1="-555.749" x2="735.6074" y2="-555.749" gradientTransform="matrix(1 0 0 -1 433.7197 -399.5801)">
		<stop  offset="0.0269" style="stop-color:#FFFFFF"/>
		<stop  offset="0.1129" style="stop-color:#000000"/>
		<stop  offset="0.8226" style="stop-color:#000000"/>
		<stop  offset="0.9462" style="stop-color:#FFFFFF"/>
	</linearGradient>
	<path fill="none" stroke="url(#SVGID_3_)" stroke-miterlimit="10" d="M1169.327,150.169H934.245c-8-0.25-25.25,1.25-44,6
		s-44.5,8-44.5,8h-305.5c0,0-53.75-0.25-59.75-1.5s-49.75-10.75-49.75-10.75l-59.5-3.75H188.661"/>
	
		<linearGradient id="SVGID_4_" gradientUnits="userSpaceOnUse" x1="-245.0586" y1="-570.334" x2="737.6084" y2="-570.334" gradientTransform="matrix(1 0 0 -1 433.7197 -399.5801)">
		<stop  offset="0.0269" style="stop-color:#FFFFFF"/>
		<stop  offset="0.1129" style="stop-color:#000000"/>
		<stop  offset="0.8226" style="stop-color:#000000"/>
		<stop  offset="0.9462" style="stop-color:#FFFFFF"/>
	</linearGradient>
	<path fill="none" stroke="url(#SVGID_4_)" stroke-miterlimit="10" d="M1171.328,164.754h-136.666H932.245c-8-0.25-25.25,1.25-44,6
		s-44.5,8-44.5,8h-305.5c0,0-53.75-0.25-59.75-1.5s-49.75-10.75-49.75-10.75l-59.5-3.75H188.661"/>
</g>
<g id="top_train_layer">
	<path id="toptrainclick"  fill="#1CD4C6" stroke="#000000" stroke-miterlimit="10" d="M748.552,63.244H676.15
		h-17.981h-72.402c-6.05,0-10.953-4.75-10.953-10.607V49.1c0-5.859,4.903-10.608,10.953-10.608h72.402h17.981h72.399
		c6.049,0,10.955,4.75,10.955,10.608v3.537C759.507,58.494,754.601,63.244,748.552,63.244z	">
<title  id="toptrainclick"></title>
	</path>
	<path id="toptrainclick2" display="none" fill="#07493F" d="M591.019,38.491v25.177c0,0-8.936,1.779-15.654-6.048
		c0,0-5.025-12.249,6.841-18.685L591.019,38.491z	">
<title  id="toptrainclick2"></title>
	</path>

	<path id="toptrainclick3"  display="none" fill="#07493F" d="M744.87,63.613v-23.557c0,0,8.357-1.664,14.646,5.657
		c0,0,4.702,11.46-6.396,17.479L744.87,62.613z	">

	</path>
	
		<text id="toptrainclicktext" transform="matrix(1 0 0 1 631.04 55.4463)" display="none" enable-background="new" font-family="'MyriadPro-Regular'" font-size="16">Train: 5451<title  id="toptrainclicktexttitle">abc</title></text>
</g>
<g id="bottom_train_layer">
	<path id="bottomtrainclick" display="none" fill="#1CD4C6" stroke="#000000" stroke-miterlimit="10" d="M748.552,183.13H676.15
		h-17.98h-72.403c-6.05,0-10.953-4.75-10.953-10.608v-3.535c0-5.858,4.903-10.607,10.953-10.607h72.403h17.98h72.399
		c6.049,0,10.955,4.75,10.955,10.607v3.535C759.507,178.38,754.601,183.13,748.552,183.13z	">
<title  id="bottomtrainclick"></title>
	</path>
	<path id="bottomtrainclick2" display="none" fill="#07493F" d="M744.87,182.613v-23.557c0,0,8.357-1.664,14.646,5.657
		c0,0,4.702,11.46-6.396,17.479L744.87,182.613z	">

<title  id="bottomtrainclick2"></title>
	</path>
	<path id="bottomtrainclick3" display="none" fill="#07493F" d="M591.019,159.491v25.177c0,0-11.936,1.779-15.654-6.048
		c0,0-5.025-14.249,6.841-18.685L591.019,159.491z	">
	</path>
		<text id="bottomtrainclicktext" transform="matrix(1 0 0 1 629.6641 176.9473)" display="none" enable-background="new" font-family="'MyriadPro-Regular'" font-size="16"> Train: 6041<title  id="bottomtrainclicktexttitle">abc</title></text>
</g>
<text transform="matrix(1 0 0 1  36.498 70.500)" font-family="'MyriadPro-Regular'" font-size="9">SN</text>
<text transform="matrix(1 0 0 1 59.7969 71.0508)" font-family="'MyriadPro-Regular'"  style="font-size:14px;">Station Node</text>
<text transform="matrix(1 0 0 1 40.500 101)" font-family="'MyriadPro-Regular'" font-size="9">T</text>
<text transform="matrix(1 0 0 1 59.8052 101.5791)" font-family="'MyriadPro-Regular'"  style="font-size:14px;">Transcoder</text>
<text transform="matrix(1 0 0 1 39.9419 128.0811)" font-family="'MyriadPro-Regular'" font-size="9">C</text>
<text transform="matrix(1 0 0 1 59.7969 129.0811)" font-family="'MyriadPro-Regular'"  style="font-size:14px;">IP Camera</text>
<text transform="matrix(1 0 0 1 40.3184 157.3135)" font-family="'MyriadPro-Regular'" font-size="9">E</text>
<text transform="matrix(1 0 0 1 59.7969 157.3135)" font-family="'MyriadPro-Regular'" style="font-size:14px;">Video Encoder</text>
<text transform="matrix(1 0 0 1 844.2773 98.6416)" enable-background="new    " font-family="'MyriadPro-Semibold'" font-size="13">SN<title  id="ts-SB-R2"></title></text>
<text id="NB-R1_1_" transform="matrix(1 0 0 1 844.2773 133.6436)" enable-background="new    " font-family="'MyriadPro-Semibold'" font-size="13">SN<title  id="ts-NB-R2"></title></text>
<g>
	
		<text transform="matrix(1 0 0 1 626.1357 98.73)" enable-background="new    " font-family="'MyriadPro-Semibold'" font-size="13.7001">C<title  id="ts-C1"></title></text>
</g>
<g>
	
		<text transform="matrix(1 0 0 1 655.7959 98.73)" enable-background="new    " font-family="'MyriadPro-Semibold'" font-size="13.7001">C<title  id="ts-C2"></title></text>
</g>
<g>
	
		<text transform="matrix(1 0 0 1 686.8027 98.73)" enable-background="new    " font-family="'MyriadPro-Semibold'" font-size="13.7001">C<title  id="ts-C3"></title></text>
</g>
<g>
	
		<text transform="matrix(1 0 0 1 716.4629 98.73)" enable-background="new    " font-family="'MyriadPro-Semibold'" font-size="13.7001">C<title  id="ts-C4"></title></text>
</g>
<g>
	
		<text transform="matrix(1 0 0 1 626.1357 134.625)" enable-background="new    " font-family="'MyriadPro-Semibold'" font-size="13.7001">C<title  id="ts-C5"></title></text>
</g>
<g>
	
		<text transform="matrix(1 0 0 1 655.7959 134.625)" enable-background="new    " font-family="'MyriadPro-Semibold'" font-size="13.7001">C<title  id="ts-C6"></title></text>
</g>
<g>
	
		<text transform="matrix(1 0 0 1 686.8027 134.625)" enable-background="new    " font-family="'MyriadPro-Semibold'" font-size="13.7001">C<title  id="ts-C7"></title></text>
</g>
<g>
	
		<text transform="matrix(1 0 0 1 716.4629 134.625)" enable-background="new    " font-family="'MyriadPro-Semibold'" font-size="13.7001">C<title  id="ts-C8"></title></text>
</g>
<text transform="matrix(1 0 0 1 488.7764 98.73)" enable-background="new    " font-family="'MyriadPro-Semibold'" font-size="13">SN<title  id="ts-SB-R1"></title></text>
<text transform="matrix(1 0 0 1 488.7764 133.7314)" enable-background="new    " font-family="'MyriadPro-Semibold'" font-size="13">SN<title  id="ts-NB-R1"></title></text>
<g>
	
		<text id="tc2text" transform="matrix(1 0 0 1 779.1807 134.7451)" enable-background="new    " font-family="'MyriadPro-Semibold'" font-size="13.7001">E<title  id="ts-TC2"></title></text>
</g>
<g>
	
		<text id="tc1text" transform="matrix(1 0 0 1 559.6816 99.7173)" enable-background="new    " font-family="'MyriadPro-Semibold'" font-size="13.7001">T<title  id="ts-TC1"></title></text>
</g>
<g id="station_name">
	<text id="section_station_name" transform="matrix(1 0 0 1 628.168 34.3882)" font-family="'MyriadPro-Regular'" font-size="16">   </text>
</g>
<text transform="matrix(1 0 0 1 261.6816 46.8379)" font-family="'MyriadPro-Regular'" font-size="16">Southbound Track</text>
<text transform="matrix(1 0 0 1 954.3223 182.1055)" font-family="'MyriadPro-Regular'" font-size="16">Northbound Track</text>
<text transform="matrix(1 0 0 1 500.7451 34.1846)" font-family="'MyriadPro-Regular'" font-size="16">SBSE</text>
<text transform="matrix(1 0 0 1 500.7451 197.1816)" font-family="'MyriadPro-Regular'" font-size="16">NBSE</text>
<text transform="matrix(1 0 0 1 844.2773 34.1846)" font-family="'MyriadPro-Regular'" font-size="16">SBNE</text>
<text transform="matrix(1 0 0 1 842.2754 197.1816)" font-family="'MyriadPro-Regular'" font-size="16">NBNE</text>
<path fill="#333333" d="M238.311,33.607l-6.992,6.968c0,0-1.438,1.121-0.293,2.875l7.285,7.26c0,0,1.461,1.072,2.898-0.341
	c0,0,0.975-0.999,0.171-2.534l-3.411-3.557l13.863,0.049c0,0,2.338-0.097,2.387-2.168c0,0-0.195-2.071-1.998-2.169l-14.275,0.049
	l3.191-3.313c0,0,1.51-1.583-0.463-3.239C240.674,33.486,239.504,32.73,238.311,33.607z"/>
<path fill="#333333" d="M1100.132,168.877l6.992,6.968c0,0,1.438,1.121,0.293,2.875l-7.285,7.261c0,0-1.461,1.071-2.897-0.342
	c0,0-0.976-0.998-0.172-2.533l3.411-3.558l-13.862,0.05c0,0-2.339-0.098-2.388-2.168c0,0,0.195-2.072,1.998-2.17l14.275,0.049
	l-3.191-3.313c0,0-1.51-1.583,0.463-3.239C1097.77,168.756,1098.938,168,1100.132,168.877z"/>
<line fill="none" stroke="#373836" stroke-width="0.75" stroke-miterlimit="10" x1="531" y1="110.251" x2="818.5" y2="110.251"/>
</svg>
