<?xml version="1.0" encoding="utf-8"?>
<!-- Generator: Adobe Illustrator 16.0.0, SVG Export Plug-In . SVG Version: 6.00 Build 0)  -->
<!DOCTYPE svg PUBLIC "-//W3C//DTD SVG 1.1//EN" "http://www.w3.org/Graphics/SVG/1.1/DTD/svg11.dtd">
<svg version="1.1" id="Layer_1" xmlns="http://www.w3.org/2000/svg" xmlns:xlink="http://www.w3.org/1999/xlink" x="0px" y="0px"
	 width="892px" height="340px" viewBox="0 0 892 340" enable-background="new 0 0 892 340" xml:space="preserve">
<path fill="none" stroke="#231F20" stroke-linecap="round" stroke-miterlimit="10" d="M879.445,248.287"/>
	<g id="voughan_metropolitan" visibility="hidden" >

		<line id="tram" fill="none" stroke="#1FE8B8" stroke-width="20" stroke-linecap="round" stroke-miterlimit="10" x1="59.116" y1="85.984" x2="111.664" y2="85.984"/>
		<rect id="rectchange" x="73.305" y="72.694" fill="#FFFFFF" width="21.333" height="26.58"/>
		<polygon id="left" fill="#191919" points="57.743,80.318 57.743,91.651 48.597,85.985 	"/>
		<polygon id="right" fill="#191919" points="112.66,80.318 112.66,91.651 121.806,85.985 	"/>
</g>
	<g>
	<line fill="none" stroke="#000000" stroke-miterlimit="10" x1="14.499" y1="86.324" x2="875.166" y2="86.324"/>
		<line fill="none" stroke="#000000" stroke-miterlimit="10" x1="14.499" y1="162.382" x2="875.166" y2="162.382"/>
		<line fill="none" stroke="#000000" stroke-miterlimit="10" x1="14.499" y1="238.44" x2="875.166" y2="238.44"/>
		<line fill="none" stroke="#000000" stroke-miterlimit="10" x1="14.499" y1="319.521" x2="431.167" y2="319.521"/>
</g>
	<g>
	<circle id="shighway_407" fill="#663399" stroke="#231F20" stroke-miterlimit="10" cx="159.214" cy="85.984" r="9.055"/>
		<circle id="spioneer_village" fill="#663399" stroke="#231F20" stroke-miterlimit="10" cx="235.982" cy="85.984" r="9.055"/>

		<ellipse id="sfinch_west" fill="#663399" stroke="#231F20" stroke-miterlimit="10" cx="387.594" cy="85.984" rx="9.055" ry="9.358"/>
		<circle id="sdownsview_park" fill="#663399" stroke="#231F20" stroke-miterlimit="10" cx="463.807" cy="85.984" r="9.056"/>
		<circle id="ssheppardwest" fill="#663399" stroke="#231F20" stroke-miterlimit="10" cx="539.38" cy="85.984" r="9.056"/>
		<ellipse id="swilson" fill="#663399" stroke="#231F20" stroke-miterlimit="10" cx="616.418" cy="85.984" rx="9.055" ry="9.358"/>
		<ellipse id="syorkdale" fill="#663399" stroke="#231F20" stroke-miterlimit="10" cx="693.028" cy="85.984" rx="9.055" ry="9.358"/>

		<ellipse id="slawrence_west" fill="#663399" stroke="#231F20" stroke-miterlimit="10" cx="769.414" cy="85.984" rx="9.055" ry="9.358"/>
		<ellipse id="sglencairn" fill="#663399" stroke="#231F20" stroke-miterlimit="10" cx="845.473" cy="85.984" rx="9.056" ry="9.358"/>
		<circle id="syork_university" fill="#663399" stroke="#231F20" stroke-miterlimit="10" cx="311.715" cy="85.984" r="9.055"/>

		<circle id="svoughan_metropolitan_centre" fill="#663399" stroke="#231F20" stroke-miterlimit="10" cx="84.006" cy="85.984" r="9.055"/>
		<circle id="sst_clair_west" fill="#663399" stroke="#231F20" stroke-miterlimit="10" cx="159.214" cy="162.058" r="9.055"/>
		<circle id="sdupont" fill="#663399" stroke="#231F20" stroke-miterlimit="10" cx="235.982" cy="162.058" r="9.055"/>

		<ellipse id="sst_george" fill="#663399" stroke="#231F20" stroke-miterlimit="10" cx="387.594" cy="162.058" rx="9.055" ry="9.358"/>
		<circle id="smuseum" fill="#663399" stroke="#231F20" stroke-miterlimit="10" cx="463.807" cy="162.058" r="9.056"/>
		<circle id="squeens_park" fill="#663399" stroke="#231F20" stroke-miterlimit="10" cx="539.38" cy="162.058" r="9.056"/>

		<ellipse id="sst_patrick" fill="#663399" stroke="#231F20" stroke-miterlimit="10" cx="616.418" cy="162.058" rx="9.055" ry="9.358"/>
		<ellipse id="sosgoda" fill="#663399" stroke="#231F20" stroke-miterlimit="10" cx="693.028" cy="162.058" rx="9.055" ry="9.358"/>

		<ellipse id="sst_andrew" fill="#663399" stroke="#231F20" stroke-miterlimit="10" cx="769.414" cy="162.058" rx="9.055" ry="9.358"/>
		<ellipse id="sunion" fill="#663399" stroke="#231F20" stroke-miterlimit="10" cx="845.473" cy="162.058" rx="9.056" ry="9.358"/>
		<circle id="sspadina" fill="#663399" stroke="#231F20" stroke-miterlimit="10" cx="311.715" cy="162.058" r="9.055"/>
		<circle id="seglinton_west" fill="#663399" stroke="#231F20" stroke-miterlimit="10" cx="84.006" cy="162.058" r="9.055"/>
		<circle id="squeen" fill="#663399" stroke="#231F20" stroke-miterlimit="10" cx="159.214" cy="238.132" r="9.055"/>
		<circle id="sdundas" fill="#663399" stroke="#231F20" stroke-miterlimit="10" cx="235.982" cy="238.132" r="9.055"/>

		<ellipse id="swellesley" fill="#663399" stroke="#231F20" stroke-miterlimit="10" cx="387.594" cy="238.132" rx="9.055" ry="9.358"/>
		<circle id="sbloor_yonge" fill="#663399" stroke="#231F20" stroke-miterlimit="10" cx="463.807" cy="238.132" r="9.056"/>
		<circle id="srosedale" fill="#663399" stroke="#231F20" stroke-miterlimit="10" cx="539.38" cy="238.132" r="9.056"/>

		<ellipse id="ssummerhill" fill="#663399" stroke="#231F20" stroke-miterlimit="10" cx="616.418" cy="238.132" rx="9.055" ry="9.358"/>
		<ellipse id="sst_clair" fill="#663399" stroke="#231F20" stroke-miterlimit="10" cx="693.028" cy="238.132" rx="9.055" ry="9.358"/>

		<ellipse id="sdavisville" fill="#663399" stroke="#231F20" stroke-miterlimit="10" cx="769.414" cy="238.132" rx="9.055" ry="9.358"/>
		<ellipse id="seglington" fill="#663399" stroke="#231F20" stroke-miterlimit="10" cx="845.473" cy="238.132" rx="9.056" ry="9.358"/>
		<circle id="scollage" fill="#663399" stroke="#231F20" stroke-miterlimit="10" cx="311.715" cy="238.132" r="9.055"/>
		<circle id="sking" fill="#663399" stroke="#231F20" stroke-miterlimit="10" cx="84.006" cy="238.132" r="9.055"/>
		<circle id="syork_mills" fill="#663399" stroke="#231F20" stroke-miterlimit="10" cx="159.214" cy="319.211" r="9.055"/>
		<circle id="ssheppard_yonge" fill="#663399" stroke="#231F20" stroke-miterlimit="10" cx="235.982" cy="319.211" r="9.055"/>
		<ellipse id="sfinch" fill="#663399" stroke="#231F20" stroke-miterlimit="10" cx="387.594" cy="319.211" rx="9.055" ry="9.358"/>
		<circle id="snorth_york_centre" fill="#663399" stroke="#231F20" stroke-miterlimit="10" cx="311.715" cy="319.211" r="9.055"/>
		<circle id="slawrence" fill="#663399" stroke="#231F20" stroke-miterlimit="10" cx="84.006" cy="319.211" r="9.055"/>
</g>
	<g id="station_names">
	<text transform="matrix(1 0 0 1 827.3799 136.833)" font-family="'Roboto'" font-size="14">Union</text>
		<text transform="matrix(1 0 0 1 743.6611 137.083)"><tspan x="0" y="0" font-family="'Roboto'" font-size="14">St</tspan><tspan x="13.228" y="0" font-family="'Roboto'" font-size="14"> </tspan><tspan x="16.345" y="0" font-family="'Roboto'" font-size="14">Andrew</tspan></text>
		<text transform="matrix(1 0 0 1 136.8062 293.6934)"><tspan x="-3" y="0" font-family="'Roboto'" font-size="14">York Mills</tspan></text>
		<text transform="matrix(1 0 0 1 59.1162 293.6934)" font-family="'Roboto'" font-size="14">Lawrence</text>
		<text transform="matrix(1 0 0 1 373.1895 293.6943)" font-family="'Roboto'" font-size="14">Finch</text>
		<text transform="matrix(1 0 0 1 136.6455 119.5332)"><tspan x="0" y="0" font-family="'Roboto'" font-size="14">St Clair</tspan><tspan x="5" y="16.8" font-family="'Roboto'" font-size="14">West</tspan></text>
		<text transform="matrix(1 0 0 1 449.4219 194.8965)"><tspan x="0" y="0" font-family="'Roboto'" font-size="14">Bloor-</tspan><tspan x="-0.927" y="16.8" font-family="'Roboto'" font-size="14">Yonge</tspan></text>

		<text transform="matrix(1 0 0 1 205.6235 276.8945)"><tspan x="0" y="0" font-family="'Roboto'" font-size="14">Sheppard</tspan><tspan x="10.76" y="16.8" font-family="'Roboto'" font-size="14" >Yonge</tspan></text>

		<text transform="matrix(1 0 0 1 279.0293 276.8936)"><tspan x="0" y="0" font-family="'Roboto'" font-size="14">North York</tspan><tspan x="11.676" y="16.8" font-family="'Roboto'" font-size="14">Centre</tspan></text>
		<text transform="matrix(1 0 0 1 218.5264 135.084)" x="-6" y="0" font-family="'Roboto'" font-size="14">Dupont</text>
		<text transform="matrix(1 0 0 1 291.9033 135.584)" x="-6" y="0" font-family="'Roboto'" font-size="14">Spadina</text>
		<text transform="matrix(1 0 0 1 363.9492 135.834)" x="-6" y="0" font-family="'Roboto'" font-size="14">St George</text>
		<text transform="matrix(1 0 0 1 442.1055 135.334)" x="-6" y="0" font-family="'Roboto'" font-size="14">Museum</text>
		<text transform="matrix(1 0 0 1 514.2891 118.0342)"><tspan x="0" y="0" font-family="'Roboto'" font-size="14">Queen's</tspan><tspan x="11.553" y="16.8" font-family="'Roboto'" font-size="14">Park</tspan></text>
		<text transform="matrix(1 0 0 1 591.8242 136.083)" x="-6" y="0" font-family="'Roboto'" font-size="14">St Patrick</text>
		<text transform="matrix(1 0 0 1 670.4385 136.583)" x="-6" y="0" font-family="'Roboto'" font-size="14">Osgoode</text>
		<text transform="matrix(1 0 0 1 597.7725 61.5176)" font-family="'Roboto'" font-size="14">Wilson</text>
		<text transform="matrix(1 0 0 1 670.8359 62.6006)"><tspan x="0" y="0" font-family="'Roboto'" font-size="14" >Yorkdale</tspan></text>
		<text transform="matrix(1 0 0 1 821.5195 61.6523)" x="-10" y="0" font-family="'Roboto'" font-size="14">Glencairn</text>
		<text transform="matrix(1 0 0 1 75.6055 212.3125)" x="-3" y="0" font-family="'Roboto'" font-size="14">King</text>
		<text transform="matrix(1 0 0 1 144.1123 212.2246)" x="-3" y="0" font-family="'Roboto'" font-size="14">Queen</text>
		<text transform="matrix(1 0 0 1 216.916 212.1367)" font-family="'Roboto'" font-size="14">Dundas</text>
		<text transform="matrix(1 0 0 1 294.5186 211.96)" font-family="'Roboto'" font-size="14">College</text>
		<text transform="matrix(1 0 0 1 365.293 212.0479)"><tspan x="-3" y="0" font-family="'Roboto'" font-size="14">Wellesley</tspan></text>
		<text transform="matrix(1 0 0 1 517.9492 212.4004)" x="-6" y="0" font-family="'Roboto'" font-size="14">Rosedale</text>
		<text transform="matrix(1 0 0 1 588.2412 211.7842)" x="-6" y="0" font-family="'Roboto'" font-size="14">Summerhill</text>
		<text transform="matrix(1 0 0 1 676.8193 211.8721)" x="-6" y="0" font-family="'Roboto'" font-size="14">St Clair</text>
		<text transform="matrix(1 0 0 1 823.5205 212.4883)" font-family="'Roboto'" font-size="14">Eglinton</text>
		<text transform="matrix(1 0 0 1 745.0215 212.5762)" x="-6" y="0" font-family="'Roboto'" font-size="14">Davisville</text>
		<text transform="matrix(1 0 0 1 58.332 29.1357)"><tspan x="0" y="0" font-family="'Roboto'" font-size="14">Vaughan</tspan><tspan x="-10.879" y="16.8" font-family="'Roboto'" font-size="14">Metropolitan</tspan><tspan x="6.631" y="33.6" font-family="'Roboto'" font-size="14">Centre</tspan></text>
		<text transform="matrix(1 0 0 1 136.4819 44.9883)"><tspan x="0" y="0" font-family="'Roboto'" font-size="14">Highway</tspan><tspan x="15.166" y="16.8" font-family="'Roboto'" font-size="14">407</tspan></text>
		<text transform="matrix(1 0 0 1 211.8545 45.124)"><tspan x="0" y="0" font-family="'Roboto'" font-size="14">Pioneer</tspan><tspan x="3.24" y="16.8" font-family="'Roboto'" font-size="14">Village</tspan></text>
		<text transform="matrix(1 0 0 1 297.9648 45.2588)"><tspan x="0" y="0" font-family="'Roboto'" font-size="14" >York</tspan><tspan x="-16.977" y="16.8" font-family="'Roboto'" font-size="14">University</tspan></text>
		<text transform="matrix(1 0 0 1 370.4766 45.3945)"><tspan x="0" y="0" font-family="'Roboto'" font-size="14">Finch</tspan><tspan x="1.299" y="16.8" font-family="'Roboto'" font-size="14">West</tspan></text>
		<text transform="matrix(1 0 0 1 428.4072 45.5303)"><tspan x="0" y="0" font-family="'Roboto'" font-size="14">Downsview</tspan><tspan x="21.007" y="16.8" font-family="'Roboto'" font-size="14">Park</tspan></text>
		<text transform="matrix(1 0 0 1 739.0625 45.665)"><tspan x="0" y="0" font-family="'Roboto'" font-size="14">Lawrence</tspan><tspan x="14.533" y="16.8" font-family="'Roboto'" font-size="14">West</tspan></text>

		<text transform="matrix(1 0 0 1 58.6753 120.5332)"><tspan x="-3" y="0" font-family="'Roboto'" font-size="14"><tspan x="0" y="0" font-family="'Roboto'" font-size="14">Eglinton</tspan><tspan x="5" y="16.8" font-family="'Roboto'" font-size="14">West</tspan></tspan></text>

		<text transform="matrix(1 0 0 1 509.0215 44.582)"><tspan x="0" y="0" font-family="'Roboto'" font-size="14">Sheppard</tspan><tspan x="14.541" y="16.8" font-family="'Roboto'" font-size="14">West</tspan></text>
</g>
</svg>