<?xml version="1.0" encoding="utf-8"?>
<!-- Generator: Adobe Illustrator 16.0.0, SVG Export Plug-In . SVG Version: 6.00 Build 0)  -->
<!DOCTYPE svg PUBLIC "-//W3C//DTD SVG 1.1//EN" "http://www.w3.org/Graphics/SVG/1.1/DTD/svg11.dtd">
<svg version="1.1" id="Layer_1" xmlns="http://www.w3.org/2000/svg" xmlns:xlink="http://www.w3.org/1999/xlink" x="0px" y="0px"
	 width="24px" height="24px" viewBox="4 4 24 24" enable-background="new 4 4 24 24" xml:space="preserve">
<path fill="#000000" d="M27.42,16.51c0.324,0,0.591-0.263,0.591-0.586c0-0.325-0.267-0.588-0.591-0.588h-3.699V13.04h3.699
	c0.324,0,0.591-0.263,0.591-0.588c0-0.325-0.267-0.588-0.591-0.588h-3.699v-0.717c0-1.601-1.277-2.912-2.885-2.912H20.24V4.587
	C20.24,4.263,19.975,4,19.649,4c-0.324,0-0.589,0.263-0.589,0.587v3.648h-2.412V4.605c0-0.324-0.264-0.587-0.588-0.587
	c-0.326,0-0.59,0.263-0.59,0.587v3.63h-2.571v-3.63c0-0.324-0.264-0.587-0.59-0.587c-0.326,0-0.59,0.263-0.59,0.587v3.63h-0.447
	c-1.606,0-2.93,1.31-2.93,2.912v0.826H4.646c-0.326,0-0.589,0.263-0.589,0.586c0,0.324,0.263,0.587,0.589,0.587h3.698v2.295H4.646
	c-0.326,0-0.589,0.263-0.589,0.586c0,0.325,0.263,0.588,0.589,0.588h3.698v2.563H4.646c-0.326,0-0.589,0.264-0.589,0.585
	c0,0.326,0.263,0.588,0.589,0.588h3.698v0.464c0,1.601,1.324,2.898,2.929,2.898h0.501V27.4c0,0.325,0.264,0.588,0.589,0.588
	c0.326,0,0.589-0.264,0.589-0.588v-3.686h2.572V27.4c0,0.325,0.265,0.588,0.59,0.588s0.589-0.264,0.589-0.588v-3.686h2.304V27.4
	c0,0.325,0.266,0.588,0.59,0.588s0.59-0.264,0.59-0.588v-3.686h0.65c1.606,0,2.885-1.298,2.885-2.898v-0.57h3.7
	c0.322,0,0.589-0.263,0.589-0.587s-0.267-0.587-0.589-0.587h-3.7V16.51H27.42L27.42,16.51z"/>
<text transform="matrix(0.8632 0 0 1 9.5254 17.4082)" fill="#FFFFFF" font-family="'MyriadPro-Black'" font-size="6.4927">&lt;</text>
<text transform="matrix(0.8632 0 0 1 12.3057 17.4082)" fill="#FFFFFF" font-family="'MyriadPro-Black'" font-size="6.4927"> </text>
<text transform="matrix(0.8632 0 0 1 13.4141 17.4082)" fill="#FFFFFF" font-family="'MyriadPro-Black'" font-size="6.4927">..</text>
<text transform="matrix(0.8632 0 0 1 17.2598 17.4082)" fill="#FFFFFF" font-family="'MyriadPro-Black'" font-size="6.4927">.</text>
<text transform="matrix(0.8632 0 0 1 18.8457 17.4082)" fill="#FFFFFF" font-family="'MyriadPro-Black'" font-size="6.4927"> </text>
<text transform="matrix(0.8632 0 0 1 19.5078 17.4082)" fill="#FFFFFF" font-family="'MyriadPro-Black'" font-size="6.4927">&gt;</text>
</svg>
